<svg xmlns="http://www.w3.org/2000/svg" viewBox="0 0 17.04 13.85"><defs><style>.cls-1{fill:#fff;}</style></defs><g id="Layer_2" data-name="Layer 2"><g id="Layer_1-2" data-name="Layer 1"><path class="cls-1" d="M17,1.64a7.12,7.12,0,0,1-2,.55A3.52,3.52,0,0,0,16.57.26a6.94,6.94,0,0,1-2.22.84,3.5,3.5,0,0,0-6,2.4,3.42,3.42,0,0,0,.09.79A9.91,9.91,0,0,1,1.19.64,3.48,3.48,0,0,0,2.27,5.31,3.6,3.6,0,0,1,.68,4.87v0A3.5,3.5,0,0,0,3.49,8.34a3.46,3.46,0,0,1-.92.12,3.52,3.52,0,0,1-.66-.06,3.5,3.5,0,0,0,3.26,2.43A7,7,0,0,1,.83,12.32a7.56,7.56,0,0,1-.83,0,9.91,9.91,0,0,0,5.36,1.57A9.88,9.88,0,0,0,15.3,3.9c0-.15,0-.3,0-.45A7,7,0,0,0,17,1.64"/></g></g></svg>