<svg xmlns="http://www.w3.org/2000/svg" viewBox="0 0 17.01 14.52"><defs><style>.cls-1{fill:#fff;}</style></defs><g id="Layer_2" data-name="Layer 2"><g id="Layer_1-2" data-name="Layer 1"><path class="cls-1" d="M12,1.52V4.76a1.13,1.13,0,0,1-.26.23.51.51,0,0,1-.25.09A.21.21,0,0,1,11.3,5a.32.32,0,0,1-.06-.23V1.52h-.88V5.08a.87.87,0,0,0,.16.58.54.54,0,0,0,.45.19,1.29,1.29,0,0,0,.52-.13,2,2,0,0,0,.49-.4v.47h.88V1.52Zm-2.66.2a1.27,1.27,0,0,0-.89-.31,1.45,1.45,0,0,0-1,.3,1,1,0,0,0-.35.79V4.71a1.1,1.1,0,0,0,.35.86,1.27,1.27,0,0,0,.91.33,1.28,1.28,0,0,0,.94-.32,1.08,1.08,0,0,0,.34-.86V2.52A1.06,1.06,0,0,0,9.32,1.72ZM8.77,4.79a.41.41,0,0,1-.1.27.39.39,0,0,1-.29.1.33.33,0,0,1-.26-.1A.39.39,0,0,1,8,4.79V2.46a.27.27,0,0,1,.11-.22.35.35,0,0,1,.25-.09.48.48,0,0,1,.29.09.29.29,0,0,1,.1.22ZM6.06,0,5.45,2.31H5.38L4.75,0h-1L4.93,3.5V5.79h1V3.39L7.05,0Zm6.82,10.19a.63.63,0,0,1,.07.35v.39h-.68v-.39a.55.55,0,0,1,.08-.35.31.31,0,0,1,.27-.11A.32.32,0,0,1,12.88,10.19Zm-2.7,0a.28.28,0,0,0-.24-.11.32.32,0,0,0-.16,0,.56.56,0,0,0-.16.12v2.41a.58.58,0,0,0,.19.14.41.41,0,0,0,.18.05.23.23,0,0,0,.21-.09.44.44,0,0,0,.07-.27v-2A.4.4,0,0,0,10.18,10.18Zm0,0a.28.28,0,0,0-.24-.11.32.32,0,0,0-.16,0,.56.56,0,0,0-.16.12v2.41a.58.58,0,0,0,.19.14.41.41,0,0,0,.18.05.23.23,0,0,0,.21-.09.44.44,0,0,0,.07-.27v-2A.4.4,0,0,0,10.18,10.18Zm4.4-3H2.43A2.45,2.45,0,0,0,0,9.62V12.1a2.44,2.44,0,0,0,2.43,2.42H14.58A2.44,2.44,0,0,0,17,12.1V9.62A2.45,2.45,0,0,0,14.58,7.18ZM5.7,8.89H4.79v4.49H3.92V8.89H3V8.13H5.7Zm2.55,4.49H7.47V13a1.21,1.21,0,0,1-.44.36.89.89,0,0,1-.45.13.5.5,0,0,1-.41-.18A.87.87,0,0,1,6,12.75V9.5h.77v3a.28.28,0,0,0,.06.2.16.16,0,0,0,.15.06.42.42,0,0,0,.22-.09.74.74,0,0,0,.23-.2V9.5h.78Zm2.82-.8a1,1,0,0,1-.18.63.64.64,0,0,1-.53.22.88.88,0,0,1-.41-.08,1,1,0,0,1-.33-.27v.3H8.84V8.13h.78V9.82A1,1,0,0,1,10,9.55a.8.8,0,0,1,.36-.09.68.68,0,0,1,.56.24,1.16,1.16,0,0,1,.2.72Zm2.69-1H12.27v.73a.86.86,0,0,0,.07.42.3.3,0,0,0,.27.12.32.32,0,0,0,.27-.11.8.8,0,0,0,.07-.43v-.18h.81v.19a1.19,1.19,0,0,1-.3.9,1.11,1.11,0,0,1-.87.3,1.07,1.07,0,0,1-.82-.31,1.26,1.26,0,0,1-.3-.89V10.54a1.11,1.11,0,0,1,.33-.82,1.22,1.22,0,0,1,.85-.32,1.13,1.13,0,0,1,.82.3,1.17,1.17,0,0,1,.29.84ZM9.94,10.07a.32.32,0,0,0-.16,0,.56.56,0,0,0-.16.12v2.41a.58.58,0,0,0,.19.14.41.41,0,0,0,.18.05.23.23,0,0,0,.21-.09.44.44,0,0,0,.07-.27v-2a.4.4,0,0,0-.09-.29A.28.28,0,0,0,9.94,10.07Zm.24.11a.28.28,0,0,0-.24-.11.32.32,0,0,0-.16,0,.56.56,0,0,0-.16.12v2.41a.58.58,0,0,0,.19.14.41.41,0,0,0,.18.05.23.23,0,0,0,.21-.09.44.44,0,0,0,.07-.27v-2A.4.4,0,0,0,10.18,10.18Zm0,0a.28.28,0,0,0-.24-.11.32.32,0,0,0-.16,0,.56.56,0,0,0-.16.12v2.41a.58.58,0,0,0,.19.14.41.41,0,0,0,.18.05.23.23,0,0,0,.21-.09.44.44,0,0,0,.07-.27v-2A.4.4,0,0,0,10.18,10.18Z"/></g></g></svg>